{
	"patcher" : 	{
		"fileversion" : 1,
		"appversion" : 		{
			"major" : 7,
			"minor" : 3,
			"revision" : 4,
			"architecture" : "x64",
			"modernui" : 1
		}
,
		"rect" : [ 34.0, 44.0, 1852.0, 1122.0 ],
		"bglocked" : 0,
		"openinpresentation" : 0,
		"default_fontsize" : 12.0,
		"default_fontface" : 0,
		"default_fontname" : "Arial",
		"gridonopen" : 1,
		"gridsize" : [ 15.0, 15.0 ],
		"gridsnaponopen" : 1,
		"objectsnaponopen" : 1,
		"statusbarvisible" : 2,
		"toolbarvisible" : 1,
		"lefttoolbarpinned" : 0,
		"toptoolbarpinned" : 0,
		"righttoolbarpinned" : 0,
		"bottomtoolbarpinned" : 0,
		"toolbars_unpinned_last_save" : 2,
		"tallnewobj" : 0,
		"boxanimatetime" : 200,
		"enablehscroll" : 1,
		"enablevscroll" : 1,
		"devicewidth" : 0.0,
		"description" : "",
		"digest" : "",
		"tags" : "",
		"style" : "",
		"subpatcher_template" : "",
		"boxes" : [ 			{
				"box" : 				{
					"id" : "obj-6",
					"maxclass" : "newobj",
					"numinlets" : 1,
					"numoutlets" : 1,
					"outlettype" : [ "" ],
					"patching_rect" : [ 886.0, 73.0, 72.0, 22.0 ],
					"style" : "",
					"text" : "loadmess 1"
				}

			}
, 			{
				"box" : 				{
					"id" : "obj-5",
					"maxclass" : "toggle",
					"numinlets" : 1,
					"numoutlets" : 1,
					"outlettype" : [ "int" ],
					"parameter_enable" : 0,
					"patching_rect" : [ 806.0, 72.0, 24.0, 24.0 ],
					"presentation_rect" : [ 241.0, 210.0, 24.0, 24.0 ],
					"style" : ""
				}

			}
, 			{
				"box" : 				{
					"fontname" : "Arial",
					"fontsize" : 13.0,
					"id" : "obj-14",
					"maxclass" : "message",
					"numinlets" : 2,
					"numoutlets" : 1,
					"outlettype" : [ "" ],
					"patching_rect" : [ 806.0, 113.0, 57.0, 23.0 ],
					"style" : "",
					"text" : "mute $1"
				}

			}
, 			{
				"box" : 				{
					"id" : "obj-4",
					"maxclass" : "newobj",
					"numinlets" : 1,
					"numoutlets" : 2,
					"outlettype" : [ "int", "int" ],
					"patching_rect" : [ 814.0, 164.0, 58.0, 22.0 ],
					"style" : "",
					"text" : "thispoly~"
				}

			}
, 			{
				"box" : 				{
					"id" : "obj-3",
					"maxclass" : "newobj",
					"numinlets" : 1,
					"numoutlets" : 1,
					"outlettype" : [ "" ],
					"patching_rect" : [ 501.0, 87.0, 30.0, 22.0 ],
					"saved_object_attributes" : 					{
						"attr_comment" : ""
					}
,
					"style" : "",
					"text" : "in 2"
				}

			}
, 			{
				"box" : 				{
					"id" : "obj-2",
					"maxclass" : "newobj",
					"numinlets" : 1,
					"numoutlets" : 1,
					"outlettype" : [ "" ],
					"patching_rect" : [ 130.0, 71.0, 30.0, 22.0 ],
					"saved_object_attributes" : 					{
						"attr_comment" : ""
					}
,
					"style" : "",
					"text" : "in 1"
				}

			}
, 			{
				"box" : 				{
					"color" : [ 0.504216, 0.87474, 0.999129, 1.0 ],
					"fontname" : "Arial",
					"fontsize" : 12.0,
					"id" : "obj-1",
					"maxclass" : "newobj",
					"numinlets" : 1,
					"numoutlets" : 0,
					"patching_rect" : [ 558.0, 1332.5, 94.0, 22.0 ],
					"style" : "",
					"text" : "send~ SYNTH2"
				}

			}
, 			{
				"box" : 				{
					"color" : [ 0.504216, 0.87474, 0.999129, 1.0 ],
					"fontname" : "Arial",
					"fontsize" : 12.0,
					"id" : "obj-13",
					"maxclass" : "newobj",
					"numinlets" : 1,
					"numoutlets" : 0,
					"patching_rect" : [ 433.0, 1332.5, 94.0, 22.0 ],
					"style" : "",
					"text" : "send~ SYNTH1"
				}

			}
, 			{
				"box" : 				{
					"format" : 6,
					"id" : "obj-79",
					"maxclass" : "flonum",
					"numinlets" : 1,
					"numoutlets" : 2,
					"outlettype" : [ "", "bang" ],
					"parameter_enable" : 0,
					"patching_rect" : [ 2339.0, 769.0, 50.0, 22.0 ],
					"style" : ""
				}

			}
, 			{
				"box" : 				{
					"id" : "obj-24",
					"maxclass" : "scope~",
					"numinlets" : 2,
					"numoutlets" : 0,
					"patching_rect" : [ 275.0, 1295.0, 130.0, 130.0 ],
					"style" : ""
				}

			}
, 			{
				"box" : 				{
					"id" : "obj-23",
					"maxclass" : "scope~",
					"numinlets" : 2,
					"numoutlets" : 0,
					"patching_rect" : [ 672.0, 1183.0, 130.0, 130.0 ],
					"style" : ""
				}

			}
, 			{
				"box" : 				{
					"format" : 6,
					"id" : "obj-22",
					"maxclass" : "flonum",
					"numinlets" : 1,
					"numoutlets" : 2,
					"outlettype" : [ "", "bang" ],
					"parameter_enable" : 0,
					"patching_rect" : [ 637.0, 1047.0, 50.0, 22.0 ],
					"style" : ""
				}

			}
, 			{
				"box" : 				{
					"format" : 6,
					"id" : "obj-21",
					"maxclass" : "flonum",
					"numinlets" : 1,
					"numoutlets" : 2,
					"outlettype" : [ "", "bang" ],
					"parameter_enable" : 0,
					"patching_rect" : [ 481.0, 1103.0, 50.0, 22.0 ],
					"style" : ""
				}

			}
, 			{
				"box" : 				{
					"format" : 6,
					"id" : "obj-20",
					"maxclass" : "flonum",
					"numinlets" : 1,
					"numoutlets" : 2,
					"outlettype" : [ "", "bang" ],
					"parameter_enable" : 0,
					"patching_rect" : [ 625.0, 1103.0, 50.0, 22.0 ],
					"style" : ""
				}

			}
, 			{
				"box" : 				{
					"id" : "obj-18",
					"maxclass" : "newobj",
					"numinlets" : 2,
					"numoutlets" : 1,
					"outlettype" : [ "signal" ],
					"patching_rect" : [ 558.0, 1130.0, 36.0, 22.0 ],
					"style" : "",
					"text" : "*~ 1."
				}

			}
, 			{
				"box" : 				{
					"id" : "obj-17",
					"maxclass" : "newobj",
					"numinlets" : 2,
					"numoutlets" : 1,
					"outlettype" : [ "signal" ],
					"patching_rect" : [ 433.0, 1138.0, 36.0, 22.0 ],
					"style" : "",
					"text" : "*~ 1."
				}

			}
, 			{
				"box" : 				{
					"fontname" : "Arial",
					"fontsize" : 9.0,
					"id" : "obj-16",
					"maxclass" : "newobj",
					"numinlets" : 1,
					"numoutlets" : 1,
					"outlettype" : [ "signal" ],
					"patching_rect" : [ 481.0, 666.0, 93.0, 19.0 ],
					"style" : "",
					"text" : "receive~ Bin-droneR"
				}

			}
, 			{
				"box" : 				{
					"fontname" : "Arial",
					"fontsize" : 9.0,
					"id" : "obj-19",
					"maxclass" : "newobj",
					"numinlets" : 1,
					"numoutlets" : 1,
					"outlettype" : [ "signal" ],
					"patching_rect" : [ 383.0, 666.0, 91.0, 19.0 ],
					"style" : "",
					"text" : "receive~ Bin-droneL"
				}

			}
, 			{
				"box" : 				{
					"id" : "obj-126",
					"maxclass" : "newobj",
					"numinlets" : 0,
					"numoutlets" : 1,
					"outlettype" : [ "" ],
					"patching_rect" : [ 2051.0, 250.0, 137.0, 22.0 ],
					"style" : "",
					"text" : "r Binaural-Gamma-Freq"
				}

			}
, 			{
				"box" : 				{
					"id" : "obj-125",
					"maxclass" : "newobj",
					"numinlets" : 0,
					"numoutlets" : 1,
					"outlettype" : [ "" ],
					"patching_rect" : [ 1544.0, 250.0, 119.0, 22.0 ],
					"style" : "",
					"text" : "r Binaural-Beta-Freq"
				}

			}
, 			{
				"box" : 				{
					"id" : "obj-124",
					"maxclass" : "newobj",
					"numinlets" : 0,
					"numoutlets" : 1,
					"outlettype" : [ "" ],
					"patching_rect" : [ 1033.0, 250.0, 125.0, 22.0 ],
					"style" : "",
					"text" : "r Binaural-Alpha-Freq"
				}

			}
, 			{
				"box" : 				{
					"id" : "obj-123",
					"maxclass" : "newobj",
					"numinlets" : 0,
					"numoutlets" : 1,
					"outlettype" : [ "" ],
					"patching_rect" : [ 536.0, 250.0, 124.0, 22.0 ],
					"style" : "",
					"text" : "r Binaural-Tetha-Freq"
				}

			}
, 			{
				"box" : 				{
					"id" : "obj-122",
					"maxclass" : "newobj",
					"numinlets" : 0,
					"numoutlets" : 1,
					"outlettype" : [ "" ],
					"patching_rect" : [ 54.0, 255.0, 123.0, 22.0 ],
					"style" : "",
					"text" : "r Binaural-Delta-Freq"
				}

			}
, 			{
				"box" : 				{
					"comment" : "",
					"id" : "obj-119",
					"index" : 0,
					"maxclass" : "inlet",
					"numinlets" : 0,
					"numoutlets" : 1,
					"outlettype" : [ "" ],
					"patching_rect" : [ 2042.0, 148.0, 30.0, 30.0 ],
					"style" : ""
				}

			}
, 			{
				"box" : 				{
					"comment" : "",
					"id" : "obj-118",
					"index" : 0,
					"maxclass" : "inlet",
					"numinlets" : 0,
					"numoutlets" : 1,
					"outlettype" : [ "" ],
					"patching_rect" : [ 1532.0, 144.0, 30.0, 30.0 ],
					"style" : ""
				}

			}
, 			{
				"box" : 				{
					"comment" : "",
					"id" : "obj-117",
					"index" : 0,
					"maxclass" : "inlet",
					"numinlets" : 0,
					"numoutlets" : 1,
					"outlettype" : [ "" ],
					"patching_rect" : [ 1028.0, 144.0, 30.0, 30.0 ],
					"style" : ""
				}

			}
, 			{
				"box" : 				{
					"comment" : "",
					"id" : "obj-116",
					"index" : 0,
					"maxclass" : "inlet",
					"numinlets" : 0,
					"numoutlets" : 1,
					"outlettype" : [ "" ],
					"patching_rect" : [ 524.0, 140.0, 30.0, 30.0 ],
					"style" : ""
				}

			}
, 			{
				"box" : 				{
					"comment" : "",
					"id" : "obj-115",
					"index" : 0,
					"maxclass" : "inlet",
					"numinlets" : 0,
					"numoutlets" : 1,
					"outlettype" : [ "" ],
					"patching_rect" : [ 45.0, 144.0, 30.0, 30.0 ],
					"style" : ""
				}

			}
, 			{
				"box" : 				{
					"format" : 6,
					"id" : "obj-100",
					"maxclass" : "flonum",
					"numinlets" : 1,
					"numoutlets" : 2,
					"outlettype" : [ "", "bang" ],
					"parameter_enable" : 0,
					"patching_rect" : [ 2294.0, 466.0, 50.0, 22.0 ],
					"style" : ""
				}

			}
, 			{
				"box" : 				{
					"id" : "obj-101",
					"maxclass" : "newobj",
					"numinlets" : 1,
					"numoutlets" : 1,
					"outlettype" : [ "" ],
					"patcher" : 					{
						"fileversion" : 1,
						"appversion" : 						{
							"major" : 7,
							"minor" : 3,
							"revision" : 4,
							"architecture" : "x64",
							"modernui" : 1
						}
,
						"rect" : [ 84.0, 128.0, 746.0, 810.0 ],
						"bglocked" : 0,
						"openinpresentation" : 0,
						"default_fontsize" : 12.0,
						"default_fontface" : 0,
						"default_fontname" : "Arial",
						"gridonopen" : 1,
						"gridsize" : [ 15.0, 15.0 ],
						"gridsnaponopen" : 1,
						"objectsnaponopen" : 1,
						"statusbarvisible" : 2,
						"toolbarvisible" : 1,
						"lefttoolbarpinned" : 0,
						"toptoolbarpinned" : 0,
						"righttoolbarpinned" : 0,
						"bottomtoolbarpinned" : 0,
						"toolbars_unpinned_last_save" : 0,
						"tallnewobj" : 0,
						"boxanimatetime" : 200,
						"enablehscroll" : 1,
						"enablevscroll" : 1,
						"devicewidth" : 0.0,
						"description" : "",
						"digest" : "",
						"tags" : "",
						"style" : "",
						"subpatcher_template" : "",
						"boxes" : [ 							{
								"box" : 								{
									"id" : "obj-28",
									"maxclass" : "newobj",
									"numinlets" : 0,
									"numoutlets" : 1,
									"outlettype" : [ "" ],
									"patching_rect" : [ 416.0, 153.0, 114.0, 22.0 ],
									"style" : "",
									"text" : "r BinauralMaxValue"
								}

							}
, 							{
								"box" : 								{
									"id" : "obj-27",
									"maxclass" : "newobj",
									"numinlets" : 0,
									"numoutlets" : 1,
									"outlettype" : [ "" ],
									"patching_rect" : [ 290.0, 153.0, 120.0, 22.0 ],
									"style" : "",
									"text" : "r BinauralRampTime"
								}

							}
, 							{
								"box" : 								{
									"id" : "obj-26",
									"maxclass" : "comment",
									"numinlets" : 1,
									"numoutlets" : 0,
									"patching_rect" : [ 373.0, 100.0, 74.0, 20.0 ],
									"style" : "",
									"text" : "MAXVALUE"
								}

							}
, 							{
								"box" : 								{
									"format" : 6,
									"id" : "obj-25",
									"maxclass" : "flonum",
									"numinlets" : 1,
									"numoutlets" : 2,
									"outlettype" : [ "", "bang" ],
									"parameter_enable" : 0,
									"patching_rect" : [ 416.0, 198.0, 50.0, 22.0 ],
									"style" : ""
								}

							}
, 							{
								"box" : 								{
									"id" : "obj-23",
									"maxclass" : "comment",
									"numinlets" : 1,
									"numoutlets" : 0,
									"patching_rect" : [ 265.0, 100.0, 74.0, 20.0 ],
									"style" : "",
									"text" : "RAMPTIME"
								}

							}
, 							{
								"box" : 								{
									"id" : "obj-19",
									"maxclass" : "message",
									"numinlets" : 2,
									"numoutlets" : 1,
									"outlettype" : [ "" ],
									"patching_rect" : [ 159.0, 693.0, 50.0, 22.0 ],
									"style" : "",
									"text" : "0.1"
								}

							}
, 							{
								"box" : 								{
									"format" : 6,
									"id" : "obj-17",
									"maxclass" : "flonum",
									"numinlets" : 1,
									"numoutlets" : 2,
									"outlettype" : [ "", "bang" ],
									"parameter_enable" : 0,
									"patching_rect" : [ 73.0, 529.0, 50.0, 22.0 ],
									"style" : ""
								}

							}
, 							{
								"box" : 								{
									"id" : "obj-15",
									"maxclass" : "newobj",
									"numinlets" : 1,
									"numoutlets" : 1,
									"outlettype" : [ "float" ],
									"patching_rect" : [ 50.0, 499.0, 21.0, 22.0 ],
									"style" : "",
									"text" : "t f"
								}

							}
, 							{
								"box" : 								{
									"id" : "obj-2",
									"maxclass" : "newobj",
									"numinlets" : 3,
									"numoutlets" : 2,
									"outlettype" : [ "", "" ],
									"patching_rect" : [ 50.0, 607.0, 43.0, 22.0 ],
									"style" : "",
									"text" : "line 0."
								}

							}
, 							{
								"box" : 								{
									"id" : "obj-14",
									"maxclass" : "newobj",
									"numinlets" : 2,
									"numoutlets" : 1,
									"outlettype" : [ "float" ],
									"patching_rect" : [ 186.0, 248.0, 47.0, 22.0 ],
									"style" : "",
									"text" : "float 0."
								}

							}
, 							{
								"box" : 								{
									"id" : "obj-13",
									"maxclass" : "newobj",
									"numinlets" : 2,
									"numoutlets" : 1,
									"outlettype" : [ "float" ],
									"patching_rect" : [ 95.0, 248.0, 53.0, 22.0 ],
									"style" : "",
									"text" : "float 0.1"
								}

							}
, 							{
								"box" : 								{
									"id" : "obj-11",
									"maxclass" : "newobj",
									"numinlets" : 2,
									"numoutlets" : 2,
									"outlettype" : [ "bang", "" ],
									"patching_rect" : [ 95.0, 198.0, 110.0, 22.0 ],
									"style" : "",
									"text" : "sel 1"
								}

							}
, 							{
								"box" : 								{
									"id" : "obj-5",
									"maxclass" : "number",
									"numinlets" : 1,
									"numoutlets" : 2,
									"outlettype" : [ "", "bang" ],
									"parameter_enable" : 0,
									"patching_rect" : [ 286.0, 198.0, 50.0, 22.0 ],
									"style" : ""
								}

							}
, 							{
								"box" : 								{
									"id" : "obj-3",
									"maxclass" : "newobj",
									"numinlets" : 2,
									"numoutlets" : 1,
									"outlettype" : [ "" ],
									"patching_rect" : [ 50.0, 570.0, 73.0, 22.0 ],
									"style" : "",
									"text" : "pack f 1000"
								}

							}
, 							{
								"box" : 								{
									"comment" : "",
									"id" : "obj-29",
									"index" : 1,
									"maxclass" : "inlet",
									"numinlets" : 0,
									"numoutlets" : 1,
									"outlettype" : [ "int" ],
									"patching_rect" : [ 95.0, 40.0, 30.0, 30.0 ],
									"style" : ""
								}

							}
, 							{
								"box" : 								{
									"comment" : "",
									"id" : "obj-30",
									"index" : 1,
									"maxclass" : "outlet",
									"numinlets" : 1,
									"numoutlets" : 0,
									"patching_rect" : [ 50.0, 775.0, 30.0, 30.0 ],
									"style" : ""
								}

							}
 ],
						"lines" : [ 							{
								"patchline" : 								{
									"destination" : [ "obj-13", 0 ],
									"source" : [ "obj-11", 0 ]
								}

							}
, 							{
								"patchline" : 								{
									"destination" : [ "obj-14", 0 ],
									"source" : [ "obj-11", 1 ]
								}

							}
, 							{
								"patchline" : 								{
									"destination" : [ "obj-15", 0 ],
									"source" : [ "obj-13", 0 ]
								}

							}
, 							{
								"patchline" : 								{
									"destination" : [ "obj-15", 0 ],
									"source" : [ "obj-14", 0 ]
								}

							}
, 							{
								"patchline" : 								{
									"destination" : [ "obj-17", 0 ],
									"order" : 0,
									"source" : [ "obj-15", 0 ]
								}

							}
, 							{
								"patchline" : 								{
									"destination" : [ "obj-3", 0 ],
									"order" : 1,
									"source" : [ "obj-15", 0 ]
								}

							}
, 							{
								"patchline" : 								{
									"destination" : [ "obj-19", 1 ],
									"order" : 0,
									"source" : [ "obj-2", 0 ]
								}

							}
, 							{
								"patchline" : 								{
									"destination" : [ "obj-30", 0 ],
									"order" : 1,
									"source" : [ "obj-2", 0 ]
								}

							}
, 							{
								"patchline" : 								{
									"destination" : [ "obj-13", 1 ],
									"source" : [ "obj-25", 0 ]
								}

							}
, 							{
								"patchline" : 								{
									"destination" : [ "obj-5", 0 ],
									"source" : [ "obj-27", 0 ]
								}

							}
, 							{
								"patchline" : 								{
									"destination" : [ "obj-25", 0 ],
									"source" : [ "obj-28", 0 ]
								}

							}
, 							{
								"patchline" : 								{
									"destination" : [ "obj-11", 0 ],
									"source" : [ "obj-29", 0 ]
								}

							}
, 							{
								"patchline" : 								{
									"destination" : [ "obj-2", 0 ],
									"source" : [ "obj-3", 0 ]
								}

							}
, 							{
								"patchline" : 								{
									"destination" : [ "obj-3", 1 ],
									"source" : [ "obj-5", 0 ]
								}

							}
 ]
					}
,
					"patching_rect" : [ 2294.0, 434.0, 158.0, 22.0 ],
					"saved_object_attributes" : 					{
						"description" : "",
						"digest" : "",
						"globalpatchername" : "",
						"style" : "",
						"tags" : ""
					}
,
					"style" : "",
					"text" : "p"
				}

			}
, 			{
				"box" : 				{
					"id" : "obj-102",
					"maxclass" : "toggle",
					"numinlets" : 1,
					"numoutlets" : 1,
					"outlettype" : [ "int" ],
					"parameter_enable" : 0,
					"patching_rect" : [ 2042.0, 201.0, 24.0, 24.0 ],
					"style" : ""
				}

			}
, 			{
				"box" : 				{
					"id" : "obj-103",
					"maxclass" : "comment",
					"numinlets" : 1,
					"numoutlets" : 0,
					"patching_rect" : [ 2051.0, 291.0, 152.0, 20.0 ],
					"style" : "",
					"text" : "GAMMA BINAURAL BEAT"
				}

			}
, 			{
				"box" : 				{
					"id" : "obj-104",
					"maxclass" : "newobj",
					"numinlets" : 1,
					"numoutlets" : 0,
					"patching_rect" : [ 2158.0, 608.0, 108.0, 22.0 ],
					"style" : "",
					"text" : "send~ Bin-droneR"
				}

			}
, 			{
				"box" : 				{
					"id" : "obj-105",
					"maxclass" : "newobj",
					"numinlets" : 1,
					"numoutlets" : 0,
					"patching_rect" : [ 2051.0, 608.0, 106.0, 22.0 ],
					"style" : "",
					"text" : "send~ Bin-droneL"
				}

			}
, 			{
				"box" : 				{
					"format" : 6,
					"id" : "obj-106",
					"maxclass" : "flonum",
					"numinlets" : 1,
					"numoutlets" : 2,
					"outlettype" : [ "", "bang" ],
					"parameter_enable" : 0,
					"patching_rect" : [ 2158.0, 434.0, 50.0, 22.0 ],
					"style" : ""
				}

			}
, 			{
				"box" : 				{
					"format" : 6,
					"id" : "obj-107",
					"maxclass" : "flonum",
					"numinlets" : 1,
					"numoutlets" : 2,
					"outlettype" : [ "", "bang" ],
					"parameter_enable" : 0,
					"patching_rect" : [ 2051.0, 344.0, 50.0, 22.0 ],
					"style" : ""
				}

			}
, 			{
				"box" : 				{
					"id" : "obj-108",
					"maxclass" : "newobj",
					"numinlets" : 2,
					"numoutlets" : 1,
					"outlettype" : [ "signal" ],
					"patching_rect" : [ 2158.0, 562.666626, 36.0, 22.0 ],
					"style" : "",
					"text" : "*~ 0."
				}

			}
, 			{
				"box" : 				{
					"id" : "obj-109",
					"maxclass" : "newobj",
					"numinlets" : 2,
					"numoutlets" : 1,
					"outlettype" : [ "signal" ],
					"patching_rect" : [ 2158.0, 466.0, 72.0, 22.0 ],
					"style" : "",
					"text" : "cycle~ 100."
				}

			}
, 			{
				"box" : 				{
					"format" : 6,
					"id" : "obj-110",
					"maxclass" : "flonum",
					"numinlets" : 1,
					"numoutlets" : 2,
					"outlettype" : [ "", "bang" ],
					"parameter_enable" : 0,
					"patching_rect" : [ 2158.0, 344.0, 50.0, 22.0 ],
					"style" : ""
				}

			}
, 			{
				"box" : 				{
					"format" : 6,
					"id" : "obj-111",
					"maxclass" : "flonum",
					"numinlets" : 1,
					"numoutlets" : 2,
					"outlettype" : [ "", "bang" ],
					"parameter_enable" : 0,
					"patching_rect" : [ 2216.0, 344.0, 50.0, 22.0 ],
					"style" : ""
				}

			}
, 			{
				"box" : 				{
					"id" : "obj-112",
					"maxclass" : "newobj",
					"numinlets" : 2,
					"numoutlets" : 1,
					"outlettype" : [ "float" ],
					"patching_rect" : [ 2158.0, 398.0, 38.0, 22.0 ],
					"style" : "",
					"text" : "+ 30."
				}

			}
, 			{
				"box" : 				{
					"id" : "obj-113",
					"maxclass" : "newobj",
					"numinlets" : 2,
					"numoutlets" : 1,
					"outlettype" : [ "signal" ],
					"patching_rect" : [ 2051.0, 562.666626, 36.0, 22.0 ],
					"style" : "",
					"text" : "*~ 0."
				}

			}
, 			{
				"box" : 				{
					"id" : "obj-114",
					"maxclass" : "newobj",
					"numinlets" : 2,
					"numoutlets" : 1,
					"outlettype" : [ "signal" ],
					"patching_rect" : [ 2051.0, 466.0, 72.0, 22.0 ],
					"style" : "",
					"text" : "cycle~ 100."
				}

			}
, 			{
				"box" : 				{
					"format" : 6,
					"id" : "obj-85",
					"maxclass" : "flonum",
					"numinlets" : 1,
					"numoutlets" : 2,
					"outlettype" : [ "", "bang" ],
					"parameter_enable" : 0,
					"patching_rect" : [ 1787.0, 459.0, 50.0, 22.0 ],
					"style" : ""
				}

			}
, 			{
				"box" : 				{
					"id" : "obj-86",
					"maxclass" : "newobj",
					"numinlets" : 1,
					"numoutlets" : 1,
					"outlettype" : [ "" ],
					"patcher" : 					{
						"fileversion" : 1,
						"appversion" : 						{
							"major" : 7,
							"minor" : 3,
							"revision" : 4,
							"architecture" : "x64",
							"modernui" : 1
						}
,
						"rect" : [ 84.0, 128.0, 746.0, 810.0 ],
						"bglocked" : 0,
						"openinpresentation" : 0,
						"default_fontsize" : 12.0,
						"default_fontface" : 0,
						"default_fontname" : "Arial",
						"gridonopen" : 1,
						"gridsize" : [ 15.0, 15.0 ],
						"gridsnaponopen" : 1,
						"objectsnaponopen" : 1,
						"statusbarvisible" : 2,
						"toolbarvisible" : 1,
						"lefttoolbarpinned" : 0,
						"toptoolbarpinned" : 0,
						"righttoolbarpinned" : 0,
						"bottomtoolbarpinned" : 0,
						"toolbars_unpinned_last_save" : 0,
						"tallnewobj" : 0,
						"boxanimatetime" : 200,
						"enablehscroll" : 1,
						"enablevscroll" : 1,
						"devicewidth" : 0.0,
						"description" : "",
						"digest" : "",
						"tags" : "",
						"style" : "",
						"subpatcher_template" : "",
						"boxes" : [ 							{
								"box" : 								{
									"id" : "obj-28",
									"maxclass" : "newobj",
									"numinlets" : 0,
									"numoutlets" : 1,
									"outlettype" : [ "" ],
									"patching_rect" : [ 416.0, 153.0, 114.0, 22.0 ],
									"style" : "",
									"text" : "r BinauralMaxValue"
								}

							}
, 							{
								"box" : 								{
									"id" : "obj-27",
									"maxclass" : "newobj",
									"numinlets" : 0,
									"numoutlets" : 1,
									"outlettype" : [ "" ],
									"patching_rect" : [ 290.0, 153.0, 120.0, 22.0 ],
									"style" : "",
									"text" : "r BinauralRampTime"
								}

							}
, 							{
								"box" : 								{
									"id" : "obj-26",
									"maxclass" : "comment",
									"numinlets" : 1,
									"numoutlets" : 0,
									"patching_rect" : [ 373.0, 100.0, 74.0, 20.0 ],
									"style" : "",
									"text" : "MAXVALUE"
								}

							}
, 							{
								"box" : 								{
									"format" : 6,
									"id" : "obj-25",
									"maxclass" : "flonum",
									"numinlets" : 1,
									"numoutlets" : 2,
									"outlettype" : [ "", "bang" ],
									"parameter_enable" : 0,
									"patching_rect" : [ 416.0, 198.0, 50.0, 22.0 ],
									"style" : ""
								}

							}
, 							{
								"box" : 								{
									"id" : "obj-23",
									"maxclass" : "comment",
									"numinlets" : 1,
									"numoutlets" : 0,
									"patching_rect" : [ 265.0, 100.0, 74.0, 20.0 ],
									"style" : "",
									"text" : "RAMPTIME"
								}

							}
, 							{
								"box" : 								{
									"id" : "obj-19",
									"maxclass" : "message",
									"numinlets" : 2,
									"numoutlets" : 1,
									"outlettype" : [ "" ],
									"patching_rect" : [ 159.0, 693.0, 50.0, 22.0 ],
									"style" : "",
									"text" : "0.1"
								}

							}
, 							{
								"box" : 								{
									"format" : 6,
									"id" : "obj-17",
									"maxclass" : "flonum",
									"numinlets" : 1,
									"numoutlets" : 2,
									"outlettype" : [ "", "bang" ],
									"parameter_enable" : 0,
									"patching_rect" : [ 73.0, 529.0, 50.0, 22.0 ],
									"style" : ""
								}

							}
, 							{
								"box" : 								{
									"id" : "obj-15",
									"maxclass" : "newobj",
									"numinlets" : 1,
									"numoutlets" : 1,
									"outlettype" : [ "float" ],
									"patching_rect" : [ 50.0, 499.0, 21.0, 22.0 ],
									"style" : "",
									"text" : "t f"
								}

							}
, 							{
								"box" : 								{
									"id" : "obj-2",
									"maxclass" : "newobj",
									"numinlets" : 3,
									"numoutlets" : 2,
									"outlettype" : [ "", "" ],
									"patching_rect" : [ 50.0, 607.0, 43.0, 22.0 ],
									"style" : "",
									"text" : "line 0."
								}

							}
, 							{
								"box" : 								{
									"id" : "obj-14",
									"maxclass" : "newobj",
									"numinlets" : 2,
									"numoutlets" : 1,
									"outlettype" : [ "float" ],
									"patching_rect" : [ 186.0, 248.0, 47.0, 22.0 ],
									"style" : "",
									"text" : "float 0."
								}

							}
, 							{
								"box" : 								{
									"id" : "obj-13",
									"maxclass" : "newobj",
									"numinlets" : 2,
									"numoutlets" : 1,
									"outlettype" : [ "float" ],
									"patching_rect" : [ 95.0, 248.0, 53.0, 22.0 ],
									"style" : "",
									"text" : "float 0.1"
								}

							}
, 							{
								"box" : 								{
									"id" : "obj-11",
									"maxclass" : "newobj",
									"numinlets" : 2,
									"numoutlets" : 2,
									"outlettype" : [ "bang", "" ],
									"patching_rect" : [ 95.0, 198.0, 110.0, 22.0 ],
									"style" : "",
									"text" : "sel 1"
								}

							}
, 							{
								"box" : 								{
									"id" : "obj-5",
									"maxclass" : "number",
									"numinlets" : 1,
									"numoutlets" : 2,
									"outlettype" : [ "", "bang" ],
									"parameter_enable" : 0,
									"patching_rect" : [ 286.0, 198.0, 50.0, 22.0 ],
									"style" : ""
								}

							}
, 							{
								"box" : 								{
									"id" : "obj-3",
									"maxclass" : "newobj",
									"numinlets" : 2,
									"numoutlets" : 1,
									"outlettype" : [ "" ],
									"patching_rect" : [ 50.0, 570.0, 73.0, 22.0 ],
									"style" : "",
									"text" : "pack f 1000"
								}

							}
, 							{
								"box" : 								{
									"comment" : "",
									"id" : "obj-29",
									"index" : 1,
									"maxclass" : "inlet",
									"numinlets" : 0,
									"numoutlets" : 1,
									"outlettype" : [ "int" ],
									"patching_rect" : [ 95.0, 40.0, 30.0, 30.0 ],
									"style" : ""
								}

							}
, 							{
								"box" : 								{
									"comment" : "",
									"id" : "obj-30",
									"index" : 1,
									"maxclass" : "outlet",
									"numinlets" : 1,
									"numoutlets" : 0,
									"patching_rect" : [ 50.0, 775.0, 30.0, 30.0 ],
									"style" : ""
								}

							}
 ],
						"lines" : [ 							{
								"patchline" : 								{
									"destination" : [ "obj-13", 0 ],
									"source" : [ "obj-11", 0 ]
								}

							}
, 							{
								"patchline" : 								{
									"destination" : [ "obj-14", 0 ],
									"source" : [ "obj-11", 1 ]
								}

							}
, 							{
								"patchline" : 								{
									"destination" : [ "obj-15", 0 ],
									"source" : [ "obj-13", 0 ]
								}

							}
, 							{
								"patchline" : 								{
									"destination" : [ "obj-15", 0 ],
									"source" : [ "obj-14", 0 ]
								}

							}
, 							{
								"patchline" : 								{
									"destination" : [ "obj-17", 0 ],
									"order" : 0,
									"source" : [ "obj-15", 0 ]
								}

							}
, 							{
								"patchline" : 								{
									"destination" : [ "obj-3", 0 ],
									"order" : 1,
									"source" : [ "obj-15", 0 ]
								}

							}
, 							{
								"patchline" : 								{
									"destination" : [ "obj-19", 1 ],
									"order" : 0,
									"source" : [ "obj-2", 0 ]
								}

							}
, 							{
								"patchline" : 								{
									"destination" : [ "obj-30", 0 ],
									"order" : 1,
									"source" : [ "obj-2", 0 ]
								}

							}
, 							{
								"patchline" : 								{
									"destination" : [ "obj-13", 1 ],
									"source" : [ "obj-25", 0 ]
								}

							}
, 							{
								"patchline" : 								{
									"destination" : [ "obj-5", 0 ],
									"source" : [ "obj-27", 0 ]
								}

							}
, 							{
								"patchline" : 								{
									"destination" : [ "obj-25", 0 ],
									"source" : [ "obj-28", 0 ]
								}

							}
, 							{
								"patchline" : 								{
									"destination" : [ "obj-11", 0 ],
									"source" : [ "obj-29", 0 ]
								}

							}
, 							{
								"patchline" : 								{
									"destination" : [ "obj-2", 0 ],
									"source" : [ "obj-3", 0 ]
								}

							}
, 							{
								"patchline" : 								{
									"destination" : [ "obj-3", 1 ],
									"source" : [ "obj-5", 0 ]
								}

							}
 ]
					}
,
					"patching_rect" : [ 1787.0, 427.0, 158.0, 22.0 ],
					"saved_object_attributes" : 					{
						"description" : "",
						"digest" : "",
						"globalpatchername" : "",
						"style" : "",
						"tags" : ""
					}
,
					"style" : "",
					"text" : "p"
				}

			}
, 			{
				"box" : 				{
					"id" : "obj-87",
					"maxclass" : "toggle",
					"numinlets" : 1,
					"numoutlets" : 1,
					"outlettype" : [ "int" ],
					"parameter_enable" : 0,
					"patching_rect" : [ 1535.0, 194.0, 24.0, 24.0 ],
					"style" : ""
				}

			}
, 			{
				"box" : 				{
					"id" : "obj-88",
					"maxclass" : "comment",
					"numinlets" : 1,
					"numoutlets" : 0,
					"patching_rect" : [ 1544.0, 284.0, 150.0, 20.0 ],
					"style" : "",
					"text" : "BETA BINAURAL BEAT"
				}

			}
, 			{
				"box" : 				{
					"id" : "obj-89",
					"maxclass" : "newobj",
					"numinlets" : 1,
					"numoutlets" : 0,
					"patching_rect" : [ 1651.0, 601.0, 108.0, 22.0 ],
					"style" : "",
					"text" : "send~ Bin-droneR"
				}

			}
, 			{
				"box" : 				{
					"id" : "obj-90",
					"maxclass" : "newobj",
					"numinlets" : 1,
					"numoutlets" : 0,
					"patching_rect" : [ 1544.0, 601.0, 106.0, 22.0 ],
					"style" : "",
					"text" : "send~ Bin-droneL"
				}

			}
, 			{
				"box" : 				{
					"format" : 6,
					"id" : "obj-91",
					"maxclass" : "flonum",
					"numinlets" : 1,
					"numoutlets" : 2,
					"outlettype" : [ "", "bang" ],
					"parameter_enable" : 0,
					"patching_rect" : [ 1651.0, 427.0, 50.0, 22.0 ],
					"style" : ""
				}

			}
, 			{
				"box" : 				{
					"format" : 6,
					"id" : "obj-92",
					"maxclass" : "flonum",
					"numinlets" : 1,
					"numoutlets" : 2,
					"outlettype" : [ "", "bang" ],
					"parameter_enable" : 0,
					"patching_rect" : [ 1544.0, 337.0, 50.0, 22.0 ],
					"style" : ""
				}

			}
, 			{
				"box" : 				{
					"id" : "obj-93",
					"maxclass" : "newobj",
					"numinlets" : 2,
					"numoutlets" : 1,
					"outlettype" : [ "signal" ],
					"patching_rect" : [ 1651.0, 555.666626, 36.0, 22.0 ],
					"style" : "",
					"text" : "*~ 0."
				}

			}
, 			{
				"box" : 				{
					"id" : "obj-94",
					"maxclass" : "newobj",
					"numinlets" : 2,
					"numoutlets" : 1,
					"outlettype" : [ "signal" ],
					"patching_rect" : [ 1651.0, 459.0, 72.0, 22.0 ],
					"style" : "",
					"text" : "cycle~ 100."
				}

			}
, 			{
				"box" : 				{
					"format" : 6,
					"id" : "obj-95",
					"maxclass" : "flonum",
					"numinlets" : 1,
					"numoutlets" : 2,
					"outlettype" : [ "", "bang" ],
					"parameter_enable" : 0,
					"patching_rect" : [ 1651.0, 337.0, 50.0, 22.0 ],
					"style" : ""
				}

			}
, 			{
				"box" : 				{
					"format" : 6,
					"id" : "obj-96",
					"maxclass" : "flonum",
					"numinlets" : 1,
					"numoutlets" : 2,
					"outlettype" : [ "", "bang" ],
					"parameter_enable" : 0,
					"patching_rect" : [ 1709.0, 337.0, 50.0, 22.0 ],
					"style" : ""
				}

			}
, 			{
				"box" : 				{
					"id" : "obj-97",
					"maxclass" : "newobj",
					"numinlets" : 2,
					"numoutlets" : 1,
					"outlettype" : [ "float" ],
					"patching_rect" : [ 1651.0, 391.0, 38.0, 22.0 ],
					"style" : "",
					"text" : "+ 18."
				}

			}
, 			{
				"box" : 				{
					"id" : "obj-98",
					"maxclass" : "newobj",
					"numinlets" : 2,
					"numoutlets" : 1,
					"outlettype" : [ "signal" ],
					"patching_rect" : [ 1544.0, 555.666626, 36.0, 22.0 ],
					"style" : "",
					"text" : "*~ 0."
				}

			}
, 			{
				"box" : 				{
					"id" : "obj-99",
					"maxclass" : "newobj",
					"numinlets" : 2,
					"numoutlets" : 1,
					"outlettype" : [ "signal" ],
					"patching_rect" : [ 1544.0, 459.0, 72.0, 22.0 ],
					"style" : "",
					"text" : "cycle~ 100."
				}

			}
, 			{
				"box" : 				{
					"format" : 6,
					"id" : "obj-49",
					"maxclass" : "flonum",
					"numinlets" : 1,
					"numoutlets" : 2,
					"outlettype" : [ "", "bang" ],
					"parameter_enable" : 0,
					"patching_rect" : [ 1280.0, 459.0, 50.0, 22.0 ],
					"style" : ""
				}

			}
, 			{
				"box" : 				{
					"id" : "obj-50",
					"maxclass" : "newobj",
					"numinlets" : 1,
					"numoutlets" : 1,
					"outlettype" : [ "" ],
					"patcher" : 					{
						"fileversion" : 1,
						"appversion" : 						{
							"major" : 7,
							"minor" : 3,
							"revision" : 4,
							"architecture" : "x64",
							"modernui" : 1
						}
,
						"rect" : [ 84.0, 128.0, 746.0, 810.0 ],
						"bglocked" : 0,
						"openinpresentation" : 0,
						"default_fontsize" : 12.0,
						"default_fontface" : 0,
						"default_fontname" : "Arial",
						"gridonopen" : 1,
						"gridsize" : [ 15.0, 15.0 ],
						"gridsnaponopen" : 1,
						"objectsnaponopen" : 1,
						"statusbarvisible" : 2,
						"toolbarvisible" : 1,
						"lefttoolbarpinned" : 0,
						"toptoolbarpinned" : 0,
						"righttoolbarpinned" : 0,
						"bottomtoolbarpinned" : 0,
						"toolbars_unpinned_last_save" : 0,
						"tallnewobj" : 0,
						"boxanimatetime" : 200,
						"enablehscroll" : 1,
						"enablevscroll" : 1,
						"devicewidth" : 0.0,
						"description" : "",
						"digest" : "",
						"tags" : "",
						"style" : "",
						"subpatcher_template" : "",
						"boxes" : [ 							{
								"box" : 								{
									"id" : "obj-28",
									"maxclass" : "newobj",
									"numinlets" : 0,
									"numoutlets" : 1,
									"outlettype" : [ "" ],
									"patching_rect" : [ 416.0, 153.0, 114.0, 22.0 ],
									"style" : "",
									"text" : "r BinauralMaxValue"
								}

							}
, 							{
								"box" : 								{
									"id" : "obj-27",
									"maxclass" : "newobj",
									"numinlets" : 0,
									"numoutlets" : 1,
									"outlettype" : [ "" ],
									"patching_rect" : [ 290.0, 153.0, 120.0, 22.0 ],
									"style" : "",
									"text" : "r BinauralRampTime"
								}

							}
, 							{
								"box" : 								{
									"id" : "obj-26",
									"maxclass" : "comment",
									"numinlets" : 1,
									"numoutlets" : 0,
									"patching_rect" : [ 373.0, 100.0, 74.0, 20.0 ],
									"style" : "",
									"text" : "MAXVALUE"
								}

							}
, 							{
								"box" : 								{
									"format" : 6,
									"id" : "obj-25",
									"maxclass" : "flonum",
									"numinlets" : 1,
									"numoutlets" : 2,
									"outlettype" : [ "", "bang" ],
									"parameter_enable" : 0,
									"patching_rect" : [ 416.0, 198.0, 50.0, 22.0 ],
									"style" : ""
								}

							}
, 							{
								"box" : 								{
									"id" : "obj-23",
									"maxclass" : "comment",
									"numinlets" : 1,
									"numoutlets" : 0,
									"patching_rect" : [ 265.0, 100.0, 74.0, 20.0 ],
									"style" : "",
									"text" : "RAMPTIME"
								}

							}
, 							{
								"box" : 								{
									"id" : "obj-19",
									"maxclass" : "message",
									"numinlets" : 2,
									"numoutlets" : 1,
									"outlettype" : [ "" ],
									"patching_rect" : [ 159.0, 693.0, 50.0, 22.0 ],
									"style" : "",
									"text" : "0.1"
								}

							}
, 							{
								"box" : 								{
									"format" : 6,
									"id" : "obj-17",
									"maxclass" : "flonum",
									"numinlets" : 1,
									"numoutlets" : 2,
									"outlettype" : [ "", "bang" ],
									"parameter_enable" : 0,
									"patching_rect" : [ 73.0, 529.0, 50.0, 22.0 ],
									"style" : ""
								}

							}
, 							{
								"box" : 								{
									"id" : "obj-15",
									"maxclass" : "newobj",
									"numinlets" : 1,
									"numoutlets" : 1,
									"outlettype" : [ "float" ],
									"patching_rect" : [ 50.0, 499.0, 21.0, 22.0 ],
									"style" : "",
									"text" : "t f"
								}

							}
, 							{
								"box" : 								{
									"id" : "obj-2",
									"maxclass" : "newobj",
									"numinlets" : 3,
									"numoutlets" : 2,
									"outlettype" : [ "", "" ],
									"patching_rect" : [ 50.0, 607.0, 43.0, 22.0 ],
									"style" : "",
									"text" : "line 0."
								}

							}
, 							{
								"box" : 								{
									"id" : "obj-14",
									"maxclass" : "newobj",
									"numinlets" : 2,
									"numoutlets" : 1,
									"outlettype" : [ "float" ],
									"patching_rect" : [ 186.0, 248.0, 47.0, 22.0 ],
									"style" : "",
									"text" : "float 0."
								}

							}
, 							{
								"box" : 								{
									"id" : "obj-13",
									"maxclass" : "newobj",
									"numinlets" : 2,
									"numoutlets" : 1,
									"outlettype" : [ "float" ],
									"patching_rect" : [ 95.0, 248.0, 53.0, 22.0 ],
									"style" : "",
									"text" : "float 0.1"
								}

							}
, 							{
								"box" : 								{
									"id" : "obj-11",
									"maxclass" : "newobj",
									"numinlets" : 2,
									"numoutlets" : 2,
									"outlettype" : [ "bang", "" ],
									"patching_rect" : [ 95.0, 198.0, 110.0, 22.0 ],
									"style" : "",
									"text" : "sel 1"
								}

							}
, 							{
								"box" : 								{
									"id" : "obj-5",
									"maxclass" : "number",
									"numinlets" : 1,
									"numoutlets" : 2,
									"outlettype" : [ "", "bang" ],
									"parameter_enable" : 0,
									"patching_rect" : [ 286.0, 198.0, 50.0, 22.0 ],
									"style" : ""
								}

							}
, 							{
								"box" : 								{
									"id" : "obj-3",
									"maxclass" : "newobj",
									"numinlets" : 2,
									"numoutlets" : 1,
									"outlettype" : [ "" ],
									"patching_rect" : [ 50.0, 570.0, 73.0, 22.0 ],
									"style" : "",
									"text" : "pack f 1000"
								}

							}
, 							{
								"box" : 								{
									"comment" : "",
									"id" : "obj-29",
									"index" : 1,
									"maxclass" : "inlet",
									"numinlets" : 0,
									"numoutlets" : 1,
									"outlettype" : [ "int" ],
									"patching_rect" : [ 95.0, 40.0, 30.0, 30.0 ],
									"style" : ""
								}

							}
, 							{
								"box" : 								{
									"comment" : "",
									"id" : "obj-30",
									"index" : 1,
									"maxclass" : "outlet",
									"numinlets" : 1,
									"numoutlets" : 0,
									"patching_rect" : [ 50.0, 775.0, 30.0, 30.0 ],
									"style" : ""
								}

							}
 ],
						"lines" : [ 							{
								"patchline" : 								{
									"destination" : [ "obj-13", 0 ],
									"source" : [ "obj-11", 0 ]
								}

							}
, 							{
								"patchline" : 								{
									"destination" : [ "obj-14", 0 ],
									"source" : [ "obj-11", 1 ]
								}

							}
, 							{
								"patchline" : 								{
									"destination" : [ "obj-15", 0 ],
									"source" : [ "obj-13", 0 ]
								}

							}
, 							{
								"patchline" : 								{
									"destination" : [ "obj-15", 0 ],
									"source" : [ "obj-14", 0 ]
								}

							}
, 							{
								"patchline" : 								{
									"destination" : [ "obj-17", 0 ],
									"order" : 0,
									"source" : [ "obj-15", 0 ]
								}

							}
, 							{
								"patchline" : 								{
									"destination" : [ "obj-3", 0 ],
									"order" : 1,
									"source" : [ "obj-15", 0 ]
								}

							}
, 							{
								"patchline" : 								{
									"destination" : [ "obj-19", 1 ],
									"order" : 0,
									"source" : [ "obj-2", 0 ]
								}

							}
, 							{
								"patchline" : 								{
									"destination" : [ "obj-30", 0 ],
									"order" : 1,
									"source" : [ "obj-2", 0 ]
								}

							}
, 							{
								"patchline" : 								{
									"destination" : [ "obj-13", 1 ],
									"source" : [ "obj-25", 0 ]
								}

							}
, 							{
								"patchline" : 								{
									"destination" : [ "obj-5", 0 ],
									"source" : [ "obj-27", 0 ]
								}

							}
, 							{
								"patchline" : 								{
									"destination" : [ "obj-25", 0 ],
									"source" : [ "obj-28", 0 ]
								}

							}
, 							{
								"patchline" : 								{
									"destination" : [ "obj-11", 0 ],
									"source" : [ "obj-29", 0 ]
								}

							}
, 							{
								"patchline" : 								{
									"destination" : [ "obj-2", 0 ],
									"source" : [ "obj-3", 0 ]
								}

							}
, 							{
								"patchline" : 								{
									"destination" : [ "obj-3", 1 ],
									"source" : [ "obj-5", 0 ]
								}

							}
 ]
					}
,
					"patching_rect" : [ 1280.0, 427.0, 158.0, 22.0 ],
					"saved_object_attributes" : 					{
						"description" : "",
						"digest" : "",
						"globalpatchername" : "",
						"style" : "",
						"tags" : ""
					}
,
					"style" : "",
					"text" : "p"
				}

			}
, 			{
				"box" : 				{
					"id" : "obj-51",
					"maxclass" : "toggle",
					"numinlets" : 1,
					"numoutlets" : 1,
					"outlettype" : [ "int" ],
					"parameter_enable" : 0,
					"patching_rect" : [ 1028.0, 194.0, 24.0, 24.0 ],
					"style" : ""
				}

			}
, 			{
				"box" : 				{
					"id" : "obj-52",
					"maxclass" : "comment",
					"numinlets" : 1,
					"numoutlets" : 0,
					"patching_rect" : [ 1037.0, 284.0, 150.0, 20.0 ],
					"style" : "",
					"text" : "ALPHA BINAURAL BEAT"
				}

			}
, 			{
				"box" : 				{
					"id" : "obj-53",
					"maxclass" : "newobj",
					"numinlets" : 1,
					"numoutlets" : 0,
					"patching_rect" : [ 1144.0, 601.0, 108.0, 22.0 ],
					"style" : "",
					"text" : "send~ Bin-droneR"
				}

			}
, 			{
				"box" : 				{
					"id" : "obj-54",
					"maxclass" : "newobj",
					"numinlets" : 1,
					"numoutlets" : 0,
					"patching_rect" : [ 1037.0, 601.0, 106.0, 22.0 ],
					"style" : "",
					"text" : "send~ Bin-droneL"
				}

			}
, 			{
				"box" : 				{
					"format" : 6,
					"id" : "obj-55",
					"maxclass" : "flonum",
					"numinlets" : 1,
					"numoutlets" : 2,
					"outlettype" : [ "", "bang" ],
					"parameter_enable" : 0,
					"patching_rect" : [ 1144.0, 427.0, 50.0, 22.0 ],
					"style" : ""
				}

			}
, 			{
				"box" : 				{
					"format" : 6,
					"id" : "obj-56",
					"maxclass" : "flonum",
					"numinlets" : 1,
					"numoutlets" : 2,
					"outlettype" : [ "", "bang" ],
					"parameter_enable" : 0,
					"patching_rect" : [ 1037.0, 337.0, 50.0, 22.0 ],
					"style" : ""
				}

			}
, 			{
				"box" : 				{
					"id" : "obj-58",
					"maxclass" : "newobj",
					"numinlets" : 2,
					"numoutlets" : 1,
					"outlettype" : [ "signal" ],
					"patching_rect" : [ 1144.0, 555.666626, 36.0, 22.0 ],
					"style" : "",
					"text" : "*~ 0."
				}

			}
, 			{
				"box" : 				{
					"id" : "obj-60",
					"maxclass" : "newobj",
					"numinlets" : 2,
					"numoutlets" : 1,
					"outlettype" : [ "signal" ],
					"patching_rect" : [ 1144.0, 459.0, 72.0, 22.0 ],
					"style" : "",
					"text" : "cycle~ 100."
				}

			}
, 			{
				"box" : 				{
					"format" : 6,
					"id" : "obj-61",
					"maxclass" : "flonum",
					"numinlets" : 1,
					"numoutlets" : 2,
					"outlettype" : [ "", "bang" ],
					"parameter_enable" : 0,
					"patching_rect" : [ 1144.0, 337.0, 50.0, 22.0 ],
					"style" : ""
				}

			}
, 			{
				"box" : 				{
					"format" : 6,
					"id" : "obj-63",
					"maxclass" : "flonum",
					"numinlets" : 1,
					"numoutlets" : 2,
					"outlettype" : [ "", "bang" ],
					"parameter_enable" : 0,
					"patching_rect" : [ 1202.0, 337.0, 50.0, 22.0 ],
					"style" : ""
				}

			}
, 			{
				"box" : 				{
					"id" : "obj-65",
					"maxclass" : "newobj",
					"numinlets" : 2,
					"numoutlets" : 1,
					"outlettype" : [ "float" ],
					"patching_rect" : [ 1144.0, 391.0, 38.0, 22.0 ],
					"style" : "",
					"text" : "+ 10."
				}

			}
, 			{
				"box" : 				{
					"id" : "obj-73",
					"maxclass" : "newobj",
					"numinlets" : 2,
					"numoutlets" : 1,
					"outlettype" : [ "signal" ],
					"patching_rect" : [ 1037.0, 555.666626, 36.0, 22.0 ],
					"style" : "",
					"text" : "*~ 0."
				}

			}
, 			{
				"box" : 				{
					"id" : "obj-74",
					"maxclass" : "newobj",
					"numinlets" : 2,
					"numoutlets" : 1,
					"outlettype" : [ "signal" ],
					"patching_rect" : [ 1037.0, 459.0, 72.0, 22.0 ],
					"style" : "",
					"text" : "cycle~ 100."
				}

			}
, 			{
				"box" : 				{
					"format" : 6,
					"id" : "obj-34",
					"maxclass" : "flonum",
					"numinlets" : 1,
					"numoutlets" : 2,
					"outlettype" : [ "", "bang" ],
					"parameter_enable" : 0,
					"patching_rect" : [ 779.0, 459.0, 50.0, 22.0 ],
					"style" : ""
				}

			}
, 			{
				"box" : 				{
					"id" : "obj-35",
					"maxclass" : "newobj",
					"numinlets" : 1,
					"numoutlets" : 1,
					"outlettype" : [ "" ],
					"patcher" : 					{
						"fileversion" : 1,
						"appversion" : 						{
							"major" : 7,
							"minor" : 3,
							"revision" : 4,
							"architecture" : "x64",
							"modernui" : 1
						}
,
						"rect" : [ 84.0, 128.0, 746.0, 810.0 ],
						"bglocked" : 0,
						"openinpresentation" : 0,
						"default_fontsize" : 12.0,
						"default_fontface" : 0,
						"default_fontname" : "Arial",
						"gridonopen" : 1,
						"gridsize" : [ 15.0, 15.0 ],
						"gridsnaponopen" : 1,
						"objectsnaponopen" : 1,
						"statusbarvisible" : 2,
						"toolbarvisible" : 1,
						"lefttoolbarpinned" : 0,
						"toptoolbarpinned" : 0,
						"righttoolbarpinned" : 0,
						"bottomtoolbarpinned" : 0,
						"toolbars_unpinned_last_save" : 0,
						"tallnewobj" : 0,
						"boxanimatetime" : 200,
						"enablehscroll" : 1,
						"enablevscroll" : 1,
						"devicewidth" : 0.0,
						"description" : "",
						"digest" : "",
						"tags" : "",
						"style" : "",
						"subpatcher_template" : "",
						"boxes" : [ 							{
								"box" : 								{
									"id" : "obj-28",
									"maxclass" : "newobj",
									"numinlets" : 0,
									"numoutlets" : 1,
									"outlettype" : [ "" ],
									"patching_rect" : [ 416.0, 153.0, 114.0, 22.0 ],
									"style" : "",
									"text" : "r BinauralMaxValue"
								}

							}
, 							{
								"box" : 								{
									"id" : "obj-27",
									"maxclass" : "newobj",
									"numinlets" : 0,
									"numoutlets" : 1,
									"outlettype" : [ "" ],
									"patching_rect" : [ 290.0, 153.0, 120.0, 22.0 ],
									"style" : "",
									"text" : "r BinauralRampTime"
								}

							}
, 							{
								"box" : 								{
									"id" : "obj-26",
									"maxclass" : "comment",
									"numinlets" : 1,
									"numoutlets" : 0,
									"patching_rect" : [ 373.0, 100.0, 74.0, 20.0 ],
									"style" : "",
									"text" : "MAXVALUE"
								}

							}
, 							{
								"box" : 								{
									"format" : 6,
									"id" : "obj-25",
									"maxclass" : "flonum",
									"numinlets" : 1,
									"numoutlets" : 2,
									"outlettype" : [ "", "bang" ],
									"parameter_enable" : 0,
									"patching_rect" : [ 416.0, 198.0, 50.0, 22.0 ],
									"style" : ""
								}

							}
, 							{
								"box" : 								{
									"id" : "obj-23",
									"maxclass" : "comment",
									"numinlets" : 1,
									"numoutlets" : 0,
									"patching_rect" : [ 265.0, 100.0, 74.0, 20.0 ],
									"style" : "",
									"text" : "RAMPTIME"
								}

							}
, 							{
								"box" : 								{
									"id" : "obj-19",
									"maxclass" : "message",
									"numinlets" : 2,
									"numoutlets" : 1,
									"outlettype" : [ "" ],
									"patching_rect" : [ 159.0, 693.0, 50.0, 22.0 ],
									"style" : "",
									"text" : "0."
								}

							}
, 							{
								"box" : 								{
									"format" : 6,
									"id" : "obj-17",
									"maxclass" : "flonum",
									"numinlets" : 1,
									"numoutlets" : 2,
									"outlettype" : [ "", "bang" ],
									"parameter_enable" : 0,
									"patching_rect" : [ 73.0, 529.0, 50.0, 22.0 ],
									"style" : ""
								}

							}
, 							{
								"box" : 								{
									"id" : "obj-15",
									"maxclass" : "newobj",
									"numinlets" : 1,
									"numoutlets" : 1,
									"outlettype" : [ "float" ],
									"patching_rect" : [ 50.0, 499.0, 21.0, 22.0 ],
									"style" : "",
									"text" : "t f"
								}

							}
, 							{
								"box" : 								{
									"id" : "obj-2",
									"maxclass" : "newobj",
									"numinlets" : 3,
									"numoutlets" : 2,
									"outlettype" : [ "", "" ],
									"patching_rect" : [ 50.0, 607.0, 43.0, 22.0 ],
									"style" : "",
									"text" : "line 0."
								}

							}
, 							{
								"box" : 								{
									"id" : "obj-14",
									"maxclass" : "newobj",
									"numinlets" : 2,
									"numoutlets" : 1,
									"outlettype" : [ "float" ],
									"patching_rect" : [ 186.0, 248.0, 47.0, 22.0 ],
									"style" : "",
									"text" : "float 0."
								}

							}
, 							{
								"box" : 								{
									"id" : "obj-13",
									"maxclass" : "newobj",
									"numinlets" : 2,
									"numoutlets" : 1,
									"outlettype" : [ "float" ],
									"patching_rect" : [ 95.0, 248.0, 53.0, 22.0 ],
									"style" : "",
									"text" : "float 0.1"
								}

							}
, 							{
								"box" : 								{
									"id" : "obj-11",
									"maxclass" : "newobj",
									"numinlets" : 2,
									"numoutlets" : 2,
									"outlettype" : [ "bang", "" ],
									"patching_rect" : [ 95.0, 198.0, 110.0, 22.0 ],
									"style" : "",
									"text" : "sel 1"
								}

							}
, 							{
								"box" : 								{
									"id" : "obj-5",
									"maxclass" : "number",
									"numinlets" : 1,
									"numoutlets" : 2,
									"outlettype" : [ "", "bang" ],
									"parameter_enable" : 0,
									"patching_rect" : [ 286.0, 198.0, 50.0, 22.0 ],
									"style" : ""
								}

							}
, 							{
								"box" : 								{
									"id" : "obj-3",
									"maxclass" : "newobj",
									"numinlets" : 2,
									"numoutlets" : 1,
									"outlettype" : [ "" ],
									"patching_rect" : [ 50.0, 570.0, 73.0, 22.0 ],
									"style" : "",
									"text" : "pack f 1000"
								}

							}
, 							{
								"box" : 								{
									"comment" : "",
									"id" : "obj-29",
									"index" : 1,
									"maxclass" : "inlet",
									"numinlets" : 0,
									"numoutlets" : 1,
									"outlettype" : [ "int" ],
									"patching_rect" : [ 95.0, 40.0, 30.0, 30.0 ],
									"style" : ""
								}

							}
, 							{
								"box" : 								{
									"comment" : "",
									"id" : "obj-30",
									"index" : 1,
									"maxclass" : "outlet",
									"numinlets" : 1,
									"numoutlets" : 0,
									"patching_rect" : [ 50.0, 775.0, 30.0, 30.0 ],
									"style" : ""
								}

							}
 ],
						"lines" : [ 							{
								"patchline" : 								{
									"destination" : [ "obj-13", 0 ],
									"source" : [ "obj-11", 0 ]
								}

							}
, 							{
								"patchline" : 								{
									"destination" : [ "obj-14", 0 ],
									"source" : [ "obj-11", 1 ]
								}

							}
, 							{
								"patchline" : 								{
									"destination" : [ "obj-15", 0 ],
									"source" : [ "obj-13", 0 ]
								}

							}
, 							{
								"patchline" : 								{
									"destination" : [ "obj-15", 0 ],
									"source" : [ "obj-14", 0 ]
								}

							}
, 							{
								"patchline" : 								{
									"destination" : [ "obj-17", 0 ],
									"order" : 0,
									"source" : [ "obj-15", 0 ]
								}

							}
, 							{
								"patchline" : 								{
									"destination" : [ "obj-3", 0 ],
									"order" : 1,
									"source" : [ "obj-15", 0 ]
								}

							}
, 							{
								"patchline" : 								{
									"destination" : [ "obj-19", 1 ],
									"order" : 0,
									"source" : [ "obj-2", 0 ]
								}

							}
, 							{
								"patchline" : 								{
									"destination" : [ "obj-30", 0 ],
									"order" : 1,
									"source" : [ "obj-2", 0 ]
								}

							}
, 							{
								"patchline" : 								{
									"destination" : [ "obj-13", 1 ],
									"source" : [ "obj-25", 0 ]
								}

							}
, 							{
								"patchline" : 								{
									"destination" : [ "obj-5", 0 ],
									"source" : [ "obj-27", 0 ]
								}

							}
, 							{
								"patchline" : 								{
									"destination" : [ "obj-25", 0 ],
									"source" : [ "obj-28", 0 ]
								}

							}
, 							{
								"patchline" : 								{
									"destination" : [ "obj-11", 0 ],
									"source" : [ "obj-29", 0 ]
								}

							}
, 							{
								"patchline" : 								{
									"destination" : [ "obj-2", 0 ],
									"source" : [ "obj-3", 0 ]
								}

							}
, 							{
								"patchline" : 								{
									"destination" : [ "obj-3", 1 ],
									"source" : [ "obj-5", 0 ]
								}

							}
 ]
					}
,
					"patching_rect" : [ 779.0, 427.0, 158.0, 22.0 ],
					"saved_object_attributes" : 					{
						"description" : "",
						"digest" : "",
						"globalpatchername" : "",
						"style" : "",
						"tags" : ""
					}
,
					"style" : "",
					"text" : "p"
				}

			}
, 			{
				"box" : 				{
					"id" : "obj-36",
					"maxclass" : "toggle",
					"numinlets" : 1,
					"numoutlets" : 1,
					"outlettype" : [ "int" ],
					"parameter_enable" : 0,
					"patching_rect" : [ 527.0, 194.0, 24.0, 24.0 ],
					"style" : ""
				}

			}
, 			{
				"box" : 				{
					"id" : "obj-37",
					"maxclass" : "comment",
					"numinlets" : 1,
					"numoutlets" : 0,
					"patching_rect" : [ 536.0, 284.0, 150.0, 20.0 ],
					"style" : "",
					"text" : "TETHA BINAURAL BEAT"
				}

			}
, 			{
				"box" : 				{
					"id" : "obj-38",
					"maxclass" : "newobj",
					"numinlets" : 1,
					"numoutlets" : 0,
					"patching_rect" : [ 643.0, 601.0, 108.0, 22.0 ],
					"style" : "",
					"text" : "send~ Bin-droneR"
				}

			}
, 			{
				"box" : 				{
					"id" : "obj-39",
					"maxclass" : "newobj",
					"numinlets" : 1,
					"numoutlets" : 0,
					"patching_rect" : [ 536.0, 601.0, 106.0, 22.0 ],
					"style" : "",
					"text" : "send~ Bin-droneL"
				}

			}
, 			{
				"box" : 				{
					"format" : 6,
					"id" : "obj-40",
					"maxclass" : "flonum",
					"numinlets" : 1,
					"numoutlets" : 2,
					"outlettype" : [ "", "bang" ],
					"parameter_enable" : 0,
					"patching_rect" : [ 643.0, 427.0, 50.0, 22.0 ],
					"style" : ""
				}

			}
, 			{
				"box" : 				{
					"format" : 6,
					"id" : "obj-41",
					"maxclass" : "flonum",
					"numinlets" : 1,
					"numoutlets" : 2,
					"outlettype" : [ "", "bang" ],
					"parameter_enable" : 0,
					"patching_rect" : [ 536.0, 337.0, 50.0, 22.0 ],
					"style" : ""
				}

			}
, 			{
				"box" : 				{
					"id" : "obj-42",
					"maxclass" : "newobj",
					"numinlets" : 2,
					"numoutlets" : 1,
					"outlettype" : [ "signal" ],
					"patching_rect" : [ 643.0, 555.666626, 36.0, 22.0 ],
					"style" : "",
					"text" : "*~ 0."
				}

			}
, 			{
				"box" : 				{
					"id" : "obj-43",
					"maxclass" : "newobj",
					"numinlets" : 2,
					"numoutlets" : 1,
					"outlettype" : [ "signal" ],
					"patching_rect" : [ 643.0, 459.0, 72.0, 22.0 ],
					"style" : "",
					"text" : "cycle~ 100."
				}

			}
, 			{
				"box" : 				{
					"format" : 6,
					"id" : "obj-44",
					"maxclass" : "flonum",
					"numinlets" : 1,
					"numoutlets" : 2,
					"outlettype" : [ "", "bang" ],
					"parameter_enable" : 0,
					"patching_rect" : [ 643.0, 337.0, 50.0, 22.0 ],
					"style" : ""
				}

			}
, 			{
				"box" : 				{
					"format" : 6,
					"id" : "obj-45",
					"maxclass" : "flonum",
					"numinlets" : 1,
					"numoutlets" : 2,
					"outlettype" : [ "", "bang" ],
					"parameter_enable" : 0,
					"patching_rect" : [ 701.0, 337.0, 50.0, 22.0 ],
					"style" : ""
				}

			}
, 			{
				"box" : 				{
					"id" : "obj-46",
					"maxclass" : "newobj",
					"numinlets" : 2,
					"numoutlets" : 1,
					"outlettype" : [ "float" ],
					"patching_rect" : [ 643.0, 391.0, 31.0, 22.0 ],
					"style" : "",
					"text" : "+ 5."
				}

			}
, 			{
				"box" : 				{
					"id" : "obj-47",
					"maxclass" : "newobj",
					"numinlets" : 2,
					"numoutlets" : 1,
					"outlettype" : [ "signal" ],
					"patching_rect" : [ 536.0, 555.666626, 36.0, 22.0 ],
					"style" : "",
					"text" : "*~ 0."
				}

			}
, 			{
				"box" : 				{
					"id" : "obj-48",
					"maxclass" : "newobj",
					"numinlets" : 2,
					"numoutlets" : 1,
					"outlettype" : [ "signal" ],
					"patching_rect" : [ 536.0, 459.0, 72.0, 22.0 ],
					"style" : "",
					"text" : "cycle~ 100."
				}

			}
, 			{
				"box" : 				{
					"format" : 6,
					"id" : "obj-33",
					"maxclass" : "flonum",
					"numinlets" : 1,
					"numoutlets" : 2,
					"outlettype" : [ "", "bang" ],
					"parameter_enable" : 0,
					"patching_rect" : [ 297.0, 459.0, 50.0, 22.0 ],
					"style" : ""
				}

			}
, 			{
				"box" : 				{
					"id" : "obj-31",
					"maxclass" : "newobj",
					"numinlets" : 1,
					"numoutlets" : 1,
					"outlettype" : [ "" ],
					"patcher" : 					{
						"fileversion" : 1,
						"appversion" : 						{
							"major" : 7,
							"minor" : 3,
							"revision" : 4,
							"architecture" : "x64",
							"modernui" : 1
						}
,
						"rect" : [ 84.0, 128.0, 746.0, 810.0 ],
						"bglocked" : 0,
						"openinpresentation" : 0,
						"default_fontsize" : 12.0,
						"default_fontface" : 0,
						"default_fontname" : "Arial",
						"gridonopen" : 1,
						"gridsize" : [ 15.0, 15.0 ],
						"gridsnaponopen" : 1,
						"objectsnaponopen" : 1,
						"statusbarvisible" : 2,
						"toolbarvisible" : 1,
						"lefttoolbarpinned" : 0,
						"toptoolbarpinned" : 0,
						"righttoolbarpinned" : 0,
						"bottomtoolbarpinned" : 0,
						"toolbars_unpinned_last_save" : 0,
						"tallnewobj" : 0,
						"boxanimatetime" : 200,
						"enablehscroll" : 1,
						"enablevscroll" : 1,
						"devicewidth" : 0.0,
						"description" : "",
						"digest" : "",
						"tags" : "",
						"style" : "",
						"subpatcher_template" : "",
						"boxes" : [ 							{
								"box" : 								{
									"id" : "obj-28",
									"maxclass" : "newobj",
									"numinlets" : 0,
									"numoutlets" : 1,
									"outlettype" : [ "" ],
									"patching_rect" : [ 416.0, 153.0, 114.0, 22.0 ],
									"style" : "",
									"text" : "r BinauralMaxValue"
								}

							}
, 							{
								"box" : 								{
									"id" : "obj-27",
									"maxclass" : "newobj",
									"numinlets" : 0,
									"numoutlets" : 1,
									"outlettype" : [ "" ],
									"patching_rect" : [ 290.0, 153.0, 120.0, 22.0 ],
									"style" : "",
									"text" : "r BinauralRampTime"
								}

							}
, 							{
								"box" : 								{
									"id" : "obj-26",
									"maxclass" : "comment",
									"numinlets" : 1,
									"numoutlets" : 0,
									"patching_rect" : [ 373.0, 100.0, 74.0, 20.0 ],
									"style" : "",
									"text" : "MAXVALUE"
								}

							}
, 							{
								"box" : 								{
									"format" : 6,
									"id" : "obj-25",
									"maxclass" : "flonum",
									"numinlets" : 1,
									"numoutlets" : 2,
									"outlettype" : [ "", "bang" ],
									"parameter_enable" : 0,
									"patching_rect" : [ 416.0, 198.0, 50.0, 22.0 ],
									"style" : ""
								}

							}
, 							{
								"box" : 								{
									"id" : "obj-23",
									"maxclass" : "comment",
									"numinlets" : 1,
									"numoutlets" : 0,
									"patching_rect" : [ 265.0, 100.0, 74.0, 20.0 ],
									"style" : "",
									"text" : "RAMPTIME"
								}

							}
, 							{
								"box" : 								{
									"id" : "obj-19",
									"maxclass" : "message",
									"numinlets" : 2,
									"numoutlets" : 1,
									"outlettype" : [ "" ],
									"patching_rect" : [ 159.0, 693.0, 50.0, 22.0 ],
									"style" : "",
									"text" : "0."
								}

							}
, 							{
								"box" : 								{
									"format" : 6,
									"id" : "obj-17",
									"maxclass" : "flonum",
									"numinlets" : 1,
									"numoutlets" : 2,
									"outlettype" : [ "", "bang" ],
									"parameter_enable" : 0,
									"patching_rect" : [ 73.0, 529.0, 50.0, 22.0 ],
									"style" : ""
								}

							}
, 							{
								"box" : 								{
									"id" : "obj-15",
									"maxclass" : "newobj",
									"numinlets" : 1,
									"numoutlets" : 1,
									"outlettype" : [ "float" ],
									"patching_rect" : [ 50.0, 499.0, 21.0, 22.0 ],
									"style" : "",
									"text" : "t f"
								}

							}
, 							{
								"box" : 								{
									"id" : "obj-2",
									"maxclass" : "newobj",
									"numinlets" : 3,
									"numoutlets" : 2,
									"outlettype" : [ "", "" ],
									"patching_rect" : [ 50.0, 607.0, 43.0, 22.0 ],
									"style" : "",
									"text" : "line 0."
								}

							}
, 							{
								"box" : 								{
									"id" : "obj-14",
									"maxclass" : "newobj",
									"numinlets" : 2,
									"numoutlets" : 1,
									"outlettype" : [ "float" ],
									"patching_rect" : [ 186.0, 248.0, 47.0, 22.0 ],
									"style" : "",
									"text" : "float 0."
								}

							}
, 							{
								"box" : 								{
									"id" : "obj-13",
									"maxclass" : "newobj",
									"numinlets" : 2,
									"numoutlets" : 1,
									"outlettype" : [ "float" ],
									"patching_rect" : [ 95.0, 248.0, 53.0, 22.0 ],
									"style" : "",
									"text" : "float 0.1"
								}

							}
, 							{
								"box" : 								{
									"id" : "obj-11",
									"maxclass" : "newobj",
									"numinlets" : 2,
									"numoutlets" : 2,
									"outlettype" : [ "bang", "" ],
									"patching_rect" : [ 95.0, 198.0, 110.0, 22.0 ],
									"style" : "",
									"text" : "sel 1"
								}

							}
, 							{
								"box" : 								{
									"id" : "obj-5",
									"maxclass" : "number",
									"numinlets" : 1,
									"numoutlets" : 2,
									"outlettype" : [ "", "bang" ],
									"parameter_enable" : 0,
									"patching_rect" : [ 286.0, 198.0, 50.0, 22.0 ],
									"style" : ""
								}

							}
, 							{
								"box" : 								{
									"id" : "obj-3",
									"maxclass" : "newobj",
									"numinlets" : 2,
									"numoutlets" : 1,
									"outlettype" : [ "" ],
									"patching_rect" : [ 50.0, 570.0, 73.0, 22.0 ],
									"style" : "",
									"text" : "pack f 1000"
								}

							}
, 							{
								"box" : 								{
									"comment" : "",
									"id" : "obj-29",
									"index" : 1,
									"maxclass" : "inlet",
									"numinlets" : 0,
									"numoutlets" : 1,
									"outlettype" : [ "int" ],
									"patching_rect" : [ 95.0, 40.0, 30.0, 30.0 ],
									"style" : ""
								}

							}
, 							{
								"box" : 								{
									"comment" : "",
									"id" : "obj-30",
									"index" : 1,
									"maxclass" : "outlet",
									"numinlets" : 1,
									"numoutlets" : 0,
									"patching_rect" : [ 50.0, 775.0, 30.0, 30.0 ],
									"style" : ""
								}

							}
 ],
						"lines" : [ 							{
								"patchline" : 								{
									"destination" : [ "obj-13", 0 ],
									"source" : [ "obj-11", 0 ]
								}

							}
, 							{
								"patchline" : 								{
									"destination" : [ "obj-14", 0 ],
									"source" : [ "obj-11", 1 ]
								}

							}
, 							{
								"patchline" : 								{
									"destination" : [ "obj-15", 0 ],
									"source" : [ "obj-13", 0 ]
								}

							}
, 							{
								"patchline" : 								{
									"destination" : [ "obj-15", 0 ],
									"source" : [ "obj-14", 0 ]
								}

							}
, 							{
								"patchline" : 								{
									"destination" : [ "obj-17", 0 ],
									"order" : 0,
									"source" : [ "obj-15", 0 ]
								}

							}
, 							{
								"patchline" : 								{
									"destination" : [ "obj-3", 0 ],
									"order" : 1,
									"source" : [ "obj-15", 0 ]
								}

							}
, 							{
								"patchline" : 								{
									"destination" : [ "obj-19", 1 ],
									"order" : 0,
									"source" : [ "obj-2", 0 ]
								}

							}
, 							{
								"patchline" : 								{
									"destination" : [ "obj-30", 0 ],
									"order" : 1,
									"source" : [ "obj-2", 0 ]
								}

							}
, 							{
								"patchline" : 								{
									"destination" : [ "obj-13", 1 ],
									"source" : [ "obj-25", 0 ]
								}

							}
, 							{
								"patchline" : 								{
									"destination" : [ "obj-5", 0 ],
									"source" : [ "obj-27", 0 ]
								}

							}
, 							{
								"patchline" : 								{
									"destination" : [ "obj-25", 0 ],
									"source" : [ "obj-28", 0 ]
								}

							}
, 							{
								"patchline" : 								{
									"destination" : [ "obj-11", 0 ],
									"source" : [ "obj-29", 0 ]
								}

							}
, 							{
								"patchline" : 								{
									"destination" : [ "obj-2", 0 ],
									"source" : [ "obj-3", 0 ]
								}

							}
, 							{
								"patchline" : 								{
									"destination" : [ "obj-3", 1 ],
									"source" : [ "obj-5", 0 ]
								}

							}
 ]
					}
,
					"patching_rect" : [ 297.0, 427.0, 158.0, 22.0 ],
					"saved_object_attributes" : 					{
						"description" : "",
						"digest" : "",
						"globalpatchername" : "",
						"style" : "",
						"tags" : ""
					}
,
					"style" : "",
					"text" : "p"
				}

			}
, 			{
				"box" : 				{
					"id" : "obj-10",
					"maxclass" : "toggle",
					"numinlets" : 1,
					"numoutlets" : 1,
					"outlettype" : [ "int" ],
					"parameter_enable" : 0,
					"patching_rect" : [ 45.0, 194.0, 24.0, 24.0 ],
					"style" : ""
				}

			}
, 			{
				"box" : 				{
					"id" : "obj-160",
					"maxclass" : "comment",
					"numinlets" : 1,
					"numoutlets" : 0,
					"patching_rect" : [ 54.0, 284.0, 150.0, 20.0 ],
					"style" : "",
					"text" : "DELTA BINAURAL BEAT"
				}

			}
, 			{
				"box" : 				{
					"id" : "obj-72",
					"maxclass" : "newobj",
					"numinlets" : 1,
					"numoutlets" : 0,
					"patching_rect" : [ 161.0, 601.0, 108.0, 22.0 ],
					"style" : "",
					"text" : "send~ Bin-droneR"
				}

			}
, 			{
				"box" : 				{
					"id" : "obj-71",
					"maxclass" : "newobj",
					"numinlets" : 1,
					"numoutlets" : 0,
					"patching_rect" : [ 54.0, 601.0, 106.0, 22.0 ],
					"style" : "",
					"text" : "send~ Bin-droneL"
				}

			}
, 			{
				"box" : 				{
					"format" : 6,
					"id" : "obj-70",
					"maxclass" : "flonum",
					"numinlets" : 1,
					"numoutlets" : 2,
					"outlettype" : [ "", "bang" ],
					"parameter_enable" : 0,
					"patching_rect" : [ 161.0, 427.0, 50.0, 22.0 ],
					"style" : ""
				}

			}
, 			{
				"box" : 				{
					"format" : 6,
					"id" : "obj-69",
					"maxclass" : "flonum",
					"numinlets" : 1,
					"numoutlets" : 2,
					"outlettype" : [ "", "bang" ],
					"parameter_enable" : 0,
					"patching_rect" : [ 54.0, 337.0, 50.0, 22.0 ],
					"style" : ""
				}

			}
, 			{
				"box" : 				{
					"id" : "obj-68",
					"maxclass" : "newobj",
					"numinlets" : 2,
					"numoutlets" : 1,
					"outlettype" : [ "signal" ],
					"patching_rect" : [ 161.0, 555.666626, 36.0, 22.0 ],
					"style" : "",
					"text" : "*~ 0."
				}

			}
, 			{
				"box" : 				{
					"id" : "obj-67",
					"maxclass" : "newobj",
					"numinlets" : 2,
					"numoutlets" : 1,
					"outlettype" : [ "signal" ],
					"patching_rect" : [ 161.0, 459.0, 72.0, 22.0 ],
					"style" : "",
					"text" : "cycle~ 100."
				}

			}
, 			{
				"box" : 				{
					"format" : 6,
					"id" : "obj-66",
					"maxclass" : "flonum",
					"numinlets" : 1,
					"numoutlets" : 2,
					"outlettype" : [ "", "bang" ],
					"parameter_enable" : 0,
					"patching_rect" : [ 161.0, 337.0, 50.0, 22.0 ],
					"style" : ""
				}

			}
, 			{
				"box" : 				{
					"format" : 6,
					"id" : "obj-64",
					"maxclass" : "flonum",
					"numinlets" : 1,
					"numoutlets" : 2,
					"outlettype" : [ "", "bang" ],
					"parameter_enable" : 0,
					"patching_rect" : [ 219.0, 337.0, 50.0, 22.0 ],
					"style" : ""
				}

			}
, 			{
				"box" : 				{
					"id" : "obj-62",
					"maxclass" : "newobj",
					"numinlets" : 2,
					"numoutlets" : 1,
					"outlettype" : [ "float" ],
					"patching_rect" : [ 161.0, 391.0, 77.0, 22.0 ],
					"style" : "",
					"text" : "+ 2."
				}

			}
, 			{
				"box" : 				{
					"id" : "obj-59",
					"maxclass" : "newobj",
					"numinlets" : 2,
					"numoutlets" : 1,
					"outlettype" : [ "signal" ],
					"patching_rect" : [ 54.0, 555.666626, 36.0, 22.0 ],
					"style" : "",
					"text" : "*~ 0."
				}

			}
, 			{
				"box" : 				{
					"id" : "obj-57",
					"maxclass" : "newobj",
					"numinlets" : 2,
					"numoutlets" : 1,
					"outlettype" : [ "signal" ],
					"patching_rect" : [ 54.0, 459.0, 72.0, 22.0 ],
					"style" : "",
					"text" : "cycle~ 100."
				}

			}
 ],
		"lines" : [ 			{
				"patchline" : 				{
					"destination" : [ "obj-31", 0 ],
					"midpoints" : [ 54.5, 238.0, 306.5, 238.0 ],
					"source" : [ "obj-10", 0 ]
				}

			}
, 			{
				"patchline" : 				{
					"destination" : [ "obj-108", 1 ],
					"midpoints" : [ 2303.5, 548.833313, 2184.5, 548.833313 ],
					"order" : 0,
					"source" : [ "obj-100", 0 ]
				}

			}
, 			{
				"patchline" : 				{
					"destination" : [ "obj-113", 1 ],
					"midpoints" : [ 2303.5, 528.833313, 2077.5, 528.833313 ],
					"order" : 1,
					"source" : [ "obj-100", 0 ]
				}

			}
, 			{
				"patchline" : 				{
					"destination" : [ "obj-100", 0 ],
					"source" : [ "obj-101", 0 ]
				}

			}
, 			{
				"patchline" : 				{
					"destination" : [ "obj-101", 0 ],
					"midpoints" : [ 2051.5, 245.0, 2303.5, 245.0 ],
					"source" : [ "obj-102", 0 ]
				}

			}
, 			{
				"patchline" : 				{
					"destination" : [ "obj-109", 0 ],
					"source" : [ "obj-106", 0 ]
				}

			}
, 			{
				"patchline" : 				{
					"destination" : [ "obj-110", 0 ],
					"midpoints" : [ 2060.5, 383.0, 2132.0, 383.0, 2132.0, 320.0, 2167.5, 320.0 ],
					"order" : 0,
					"source" : [ "obj-107", 0 ]
				}

			}
, 			{
				"patchline" : 				{
					"destination" : [ "obj-114", 0 ],
					"order" : 1,
					"source" : [ "obj-107", 0 ]
				}

			}
, 			{
				"patchline" : 				{
					"destination" : [ "obj-104", 0 ],
					"source" : [ "obj-108", 0 ]
				}

			}
, 			{
				"patchline" : 				{
					"destination" : [ "obj-108", 0 ],
					"source" : [ "obj-109", 0 ]
				}

			}
, 			{
				"patchline" : 				{
					"destination" : [ "obj-112", 0 ],
					"source" : [ "obj-110", 0 ]
				}

			}
, 			{
				"patchline" : 				{
					"destination" : [ "obj-112", 1 ],
					"source" : [ "obj-111", 0 ]
				}

			}
, 			{
				"patchline" : 				{
					"destination" : [ "obj-106", 0 ],
					"source" : [ "obj-112", 0 ]
				}

			}
, 			{
				"patchline" : 				{
					"destination" : [ "obj-105", 0 ],
					"source" : [ "obj-113", 0 ]
				}

			}
, 			{
				"patchline" : 				{
					"destination" : [ "obj-113", 0 ],
					"source" : [ "obj-114", 0 ]
				}

			}
, 			{
				"patchline" : 				{
					"destination" : [ "obj-10", 0 ],
					"source" : [ "obj-115", 0 ]
				}

			}
, 			{
				"patchline" : 				{
					"destination" : [ "obj-36", 0 ],
					"source" : [ "obj-116", 0 ]
				}

			}
, 			{
				"patchline" : 				{
					"destination" : [ "obj-51", 0 ],
					"source" : [ "obj-117", 0 ]
				}

			}
, 			{
				"patchline" : 				{
					"destination" : [ "obj-87", 0 ],
					"source" : [ "obj-118", 0 ]
				}

			}
, 			{
				"patchline" : 				{
					"destination" : [ "obj-102", 0 ],
					"source" : [ "obj-119", 0 ]
				}

			}
, 			{
				"patchline" : 				{
					"destination" : [ "obj-69", 0 ],
					"source" : [ "obj-122", 0 ]
				}

			}
, 			{
				"patchline" : 				{
					"destination" : [ "obj-41", 0 ],
					"source" : [ "obj-123", 0 ]
				}

			}
, 			{
				"patchline" : 				{
					"destination" : [ "obj-56", 0 ],
					"source" : [ "obj-124", 0 ]
				}

			}
, 			{
				"patchline" : 				{
					"destination" : [ "obj-92", 0 ],
					"source" : [ "obj-125", 0 ]
				}

			}
, 			{
				"patchline" : 				{
					"destination" : [ "obj-107", 0 ],
					"source" : [ "obj-126", 0 ]
				}

			}
, 			{
				"patchline" : 				{
					"destination" : [ "obj-4", 0 ],
					"source" : [ "obj-14", 0 ]
				}

			}
, 			{
				"patchline" : 				{
					"destination" : [ "obj-18", 0 ],
					"order" : 1,
					"source" : [ "obj-16", 0 ]
				}

			}
, 			{
				"patchline" : 				{
					"destination" : [ "obj-4", 0 ],
					"order" : 0,
					"source" : [ "obj-16", 0 ]
				}

			}
, 			{
				"patchline" : 				{
					"destination" : [ "obj-13", 0 ],
					"order" : 0,
					"source" : [ "obj-17", 0 ]
				}

			}
, 			{
				"patchline" : 				{
					"destination" : [ "obj-24", 0 ],
					"order" : 1,
					"source" : [ "obj-17", 0 ]
				}

			}
, 			{
				"patchline" : 				{
					"destination" : [ "obj-1", 0 ],
					"order" : 1,
					"source" : [ "obj-18", 0 ]
				}

			}
, 			{
				"patchline" : 				{
					"destination" : [ "obj-23", 0 ],
					"order" : 0,
					"source" : [ "obj-18", 0 ]
				}

			}
, 			{
				"patchline" : 				{
					"destination" : [ "obj-17", 0 ],
					"source" : [ "obj-19", 0 ]
				}

			}
, 			{
				"patchline" : 				{
					"destination" : [ "obj-10", 0 ],
					"source" : [ "obj-2", 0 ]
				}

			}
, 			{
				"patchline" : 				{
					"destination" : [ "obj-18", 1 ],
					"source" : [ "obj-20", 0 ]
				}

			}
, 			{
				"patchline" : 				{
					"destination" : [ "obj-17", 1 ],
					"source" : [ "obj-21", 0 ]
				}

			}
, 			{
				"patchline" : 				{
					"destination" : [ "obj-20", 0 ],
					"order" : 0,
					"source" : [ "obj-22", 0 ]
				}

			}
, 			{
				"patchline" : 				{
					"destination" : [ "obj-21", 0 ],
					"order" : 1,
					"source" : [ "obj-22", 0 ]
				}

			}
, 			{
				"patchline" : 				{
					"destination" : [ "obj-36", 0 ],
					"source" : [ "obj-3", 0 ]
				}

			}
, 			{
				"patchline" : 				{
					"destination" : [ "obj-33", 0 ],
					"source" : [ "obj-31", 0 ]
				}

			}
, 			{
				"patchline" : 				{
					"destination" : [ "obj-59", 1 ],
					"midpoints" : [ 306.5, 521.833313, 80.5, 521.833313 ],
					"order" : 1,
					"source" : [ "obj-33", 0 ]
				}

			}
, 			{
				"patchline" : 				{
					"destination" : [ "obj-68", 1 ],
					"midpoints" : [ 306.5, 541.833313, 187.5, 541.833313 ],
					"order" : 0,
					"source" : [ "obj-33", 0 ]
				}

			}
, 			{
				"patchline" : 				{
					"destination" : [ "obj-42", 1 ],
					"midpoints" : [ 788.5, 541.833313, 669.5, 541.833313 ],
					"order" : 0,
					"source" : [ "obj-34", 0 ]
				}

			}
, 			{
				"patchline" : 				{
					"destination" : [ "obj-47", 1 ],
					"midpoints" : [ 788.5, 521.833313, 562.5, 521.833313 ],
					"order" : 1,
					"source" : [ "obj-34", 0 ]
				}

			}
, 			{
				"patchline" : 				{
					"destination" : [ "obj-34", 0 ],
					"source" : [ "obj-35", 0 ]
				}

			}
, 			{
				"patchline" : 				{
					"destination" : [ "obj-35", 0 ],
					"midpoints" : [ 536.5, 238.0, 788.5, 238.0 ],
					"source" : [ "obj-36", 0 ]
				}

			}
, 			{
				"patchline" : 				{
					"destination" : [ "obj-43", 0 ],
					"source" : [ "obj-40", 0 ]
				}

			}
, 			{
				"patchline" : 				{
					"destination" : [ "obj-44", 0 ],
					"midpoints" : [ 545.5, 376.0, 617.0, 376.0, 617.0, 313.0, 652.5, 313.0 ],
					"order" : 0,
					"source" : [ "obj-41", 0 ]
				}

			}
, 			{
				"patchline" : 				{
					"destination" : [ "obj-48", 0 ],
					"order" : 1,
					"source" : [ "obj-41", 0 ]
				}

			}
, 			{
				"patchline" : 				{
					"destination" : [ "obj-38", 0 ],
					"source" : [ "obj-42", 0 ]
				}

			}
, 			{
				"patchline" : 				{
					"destination" : [ "obj-42", 0 ],
					"source" : [ "obj-43", 0 ]
				}

			}
, 			{
				"patchline" : 				{
					"destination" : [ "obj-46", 0 ],
					"source" : [ "obj-44", 0 ]
				}

			}
, 			{
				"patchline" : 				{
					"destination" : [ "obj-46", 1 ],
					"source" : [ "obj-45", 0 ]
				}

			}
, 			{
				"patchline" : 				{
					"destination" : [ "obj-40", 0 ],
					"source" : [ "obj-46", 0 ]
				}

			}
, 			{
				"patchline" : 				{
					"destination" : [ "obj-39", 0 ],
					"source" : [ "obj-47", 0 ]
				}

			}
, 			{
				"patchline" : 				{
					"destination" : [ "obj-47", 0 ],
					"source" : [ "obj-48", 0 ]
				}

			}
, 			{
				"patchline" : 				{
					"destination" : [ "obj-58", 1 ],
					"midpoints" : [ 1289.5, 541.833313, 1170.5, 541.833313 ],
					"order" : 0,
					"source" : [ "obj-49", 0 ]
				}

			}
, 			{
				"patchline" : 				{
					"destination" : [ "obj-73", 1 ],
					"midpoints" : [ 1289.5, 521.833313, 1063.5, 521.833313 ],
					"order" : 1,
					"source" : [ "obj-49", 0 ]
				}

			}
, 			{
				"patchline" : 				{
					"destination" : [ "obj-14", 0 ],
					"source" : [ "obj-5", 0 ]
				}

			}
, 			{
				"patchline" : 				{
					"destination" : [ "obj-49", 0 ],
					"source" : [ "obj-50", 0 ]
				}

			}
, 			{
				"patchline" : 				{
					"destination" : [ "obj-50", 0 ],
					"midpoints" : [ 1037.5, 238.0, 1289.5, 238.0 ],
					"source" : [ "obj-51", 0 ]
				}

			}
, 			{
				"patchline" : 				{
					"destination" : [ "obj-60", 0 ],
					"source" : [ "obj-55", 0 ]
				}

			}
, 			{
				"patchline" : 				{
					"destination" : [ "obj-61", 0 ],
					"midpoints" : [ 1046.5, 376.0, 1118.0, 376.0, 1118.0, 313.0, 1153.5, 313.0 ],
					"order" : 0,
					"source" : [ "obj-56", 0 ]
				}

			}
, 			{
				"patchline" : 				{
					"destination" : [ "obj-74", 0 ],
					"order" : 1,
					"source" : [ "obj-56", 0 ]
				}

			}
, 			{
				"patchline" : 				{
					"destination" : [ "obj-59", 0 ],
					"source" : [ "obj-57", 0 ]
				}

			}
, 			{
				"patchline" : 				{
					"destination" : [ "obj-53", 0 ],
					"source" : [ "obj-58", 0 ]
				}

			}
, 			{
				"patchline" : 				{
					"destination" : [ "obj-71", 0 ],
					"source" : [ "obj-59", 0 ]
				}

			}
, 			{
				"patchline" : 				{
					"destination" : [ "obj-5", 0 ],
					"source" : [ "obj-6", 0 ]
				}

			}
, 			{
				"patchline" : 				{
					"destination" : [ "obj-58", 0 ],
					"source" : [ "obj-60", 0 ]
				}

			}
, 			{
				"patchline" : 				{
					"destination" : [ "obj-65", 0 ],
					"source" : [ "obj-61", 0 ]
				}

			}
, 			{
				"patchline" : 				{
					"destination" : [ "obj-70", 0 ],
					"source" : [ "obj-62", 0 ]
				}

			}
, 			{
				"patchline" : 				{
					"destination" : [ "obj-65", 1 ],
					"source" : [ "obj-63", 0 ]
				}

			}
, 			{
				"patchline" : 				{
					"destination" : [ "obj-62", 1 ],
					"source" : [ "obj-64", 0 ]
				}

			}
, 			{
				"patchline" : 				{
					"destination" : [ "obj-55", 0 ],
					"source" : [ "obj-65", 0 ]
				}

			}
, 			{
				"patchline" : 				{
					"destination" : [ "obj-62", 0 ],
					"source" : [ "obj-66", 0 ]
				}

			}
, 			{
				"patchline" : 				{
					"destination" : [ "obj-68", 0 ],
					"source" : [ "obj-67", 0 ]
				}

			}
, 			{
				"patchline" : 				{
					"destination" : [ "obj-72", 0 ],
					"source" : [ "obj-68", 0 ]
				}

			}
, 			{
				"patchline" : 				{
					"destination" : [ "obj-57", 0 ],
					"order" : 1,
					"source" : [ "obj-69", 0 ]
				}

			}
, 			{
				"patchline" : 				{
					"destination" : [ "obj-66", 0 ],
					"midpoints" : [ 63.5, 376.0, 135.0, 376.0, 135.0, 313.0, 170.5, 313.0 ],
					"order" : 0,
					"source" : [ "obj-69", 0 ]
				}

			}
, 			{
				"patchline" : 				{
					"destination" : [ "obj-67", 0 ],
					"source" : [ "obj-70", 0 ]
				}

			}
, 			{
				"patchline" : 				{
					"destination" : [ "obj-54", 0 ],
					"source" : [ "obj-73", 0 ]
				}

			}
, 			{
				"patchline" : 				{
					"destination" : [ "obj-73", 0 ],
					"source" : [ "obj-74", 0 ]
				}

			}
, 			{
				"patchline" : 				{
					"destination" : [ "obj-93", 1 ],
					"midpoints" : [ 1796.5, 541.833313, 1677.5, 541.833313 ],
					"order" : 0,
					"source" : [ "obj-85", 0 ]
				}

			}
, 			{
				"patchline" : 				{
					"destination" : [ "obj-98", 1 ],
					"midpoints" : [ 1796.5, 521.833313, 1570.5, 521.833313 ],
					"order" : 1,
					"source" : [ "obj-85", 0 ]
				}

			}
, 			{
				"patchline" : 				{
					"destination" : [ "obj-85", 0 ],
					"source" : [ "obj-86", 0 ]
				}

			}
, 			{
				"patchline" : 				{
					"destination" : [ "obj-86", 0 ],
					"midpoints" : [ 1544.5, 238.0, 1796.5, 238.0 ],
					"source" : [ "obj-87", 0 ]
				}

			}
, 			{
				"patchline" : 				{
					"destination" : [ "obj-94", 0 ],
					"source" : [ "obj-91", 0 ]
				}

			}
, 			{
				"patchline" : 				{
					"destination" : [ "obj-95", 0 ],
					"midpoints" : [ 1553.5, 376.0, 1625.0, 376.0, 1625.0, 313.0, 1660.5, 313.0 ],
					"order" : 0,
					"source" : [ "obj-92", 0 ]
				}

			}
, 			{
				"patchline" : 				{
					"destination" : [ "obj-99", 0 ],
					"order" : 1,
					"source" : [ "obj-92", 0 ]
				}

			}
, 			{
				"patchline" : 				{
					"destination" : [ "obj-89", 0 ],
					"source" : [ "obj-93", 0 ]
				}

			}
, 			{
				"patchline" : 				{
					"destination" : [ "obj-93", 0 ],
					"source" : [ "obj-94", 0 ]
				}

			}
, 			{
				"patchline" : 				{
					"destination" : [ "obj-97", 0 ],
					"source" : [ "obj-95", 0 ]
				}

			}
, 			{
				"patchline" : 				{
					"destination" : [ "obj-97", 1 ],
					"source" : [ "obj-96", 0 ]
				}

			}
, 			{
				"patchline" : 				{
					"destination" : [ "obj-91", 0 ],
					"source" : [ "obj-97", 0 ]
				}

			}
, 			{
				"patchline" : 				{
					"destination" : [ "obj-90", 0 ],
					"source" : [ "obj-98", 0 ]
				}

			}
, 			{
				"patchline" : 				{
					"destination" : [ "obj-98", 0 ],
					"source" : [ "obj-99", 0 ]
				}

			}
 ],
		"dependency_cache" : [  ],
		"autosave" : 0,
		"styles" : [ 			{
				"name" : "AudioStatus_Menu",
				"default" : 				{
					"bgfillcolor" : 					{
						"type" : "color",
						"color" : [ 0.294118, 0.313726, 0.337255, 1 ],
						"color1" : [ 0.454902, 0.462745, 0.482353, 0.0 ],
						"color2" : [ 0.290196, 0.309804, 0.301961, 1.0 ],
						"angle" : 270.0,
						"proportion" : 0.39,
						"autogradient" : 0
					}

				}
,
				"parentstyle" : "",
				"multi" : 0
			}
, 			{
				"name" : "Audiomix",
				"default" : 				{
					"bgfillcolor" : 					{
						"type" : "gradient",
						"color1" : [ 0.376471, 0.384314, 0.4, 1.0 ],
						"color2" : [ 0.290196, 0.309804, 0.301961, 1.0 ],
						"color" : [ 0.290196, 0.309804, 0.301961, 1.0 ],
						"angle" : 270.0,
						"proportion" : 0.39
					}

				}
,
				"parentstyle" : "",
				"multi" : 0
			}
, 			{
				"name" : "Jamoma_highlighted_orange",
				"default" : 				{
					"accentcolor" : [ 1.0, 0.5, 0.0, 1.0 ]
				}
,
				"parentstyle" : "",
				"multi" : 0
			}
 ]
	}

}
